<svg width="30" height="30" viewBox="0 0 30 30" fill="none" xmlns="http://www.w3.org/2000/svg">
<g opacity="0.5">
<path d="M18.75 21.25V22.5C18.75 24.5711 17.0711 26.25 15 26.25C12.9289 26.25 11.25 24.5711 11.25 22.5V21.25M18.75 21.25H11.25M18.75 21.25H23.2381C23.7162 21.25 23.9565 21.25 24.1501 21.1847C24.52 21.06 24.8094 20.7695 24.9341 20.3997C24.9996 20.2054 24.9996 19.9644 24.9996 19.4824C24.9996 19.2715 24.9994 19.1661 24.9829 19.0655C24.9517 18.8755 24.878 18.6954 24.7657 18.539C24.7064 18.4564 24.631 18.381 24.4823 18.2323L23.9954 17.7454C23.8383 17.5882 23.75 17.3751 23.75 17.153V12.5C23.75 7.6675 19.8325 3.74999 15 3.75C10.1675 3.75001 6.25 7.66751 6.25 12.5V17.153C6.25 17.3752 6.16155 17.5882 6.00446 17.7454L5.51758 18.2323C5.36845 18.3814 5.2938 18.4562 5.23438 18.539C5.12207 18.6955 5.04769 18.8755 5.0165 19.0655C5 19.1661 5 19.2715 5 19.4825C5 19.9644 5 20.2053 5.06556 20.3996C5.19031 20.7695 5.481 21.06 5.85082 21.1847C6.04445 21.25 6.28376 21.25 6.76195 21.25H11.25" stroke="#F9FAFB" stroke-width="2" stroke-linecap="round" stroke-linejoin="round"/>
</g>
</svg>
