<?xml version="1.0" encoding="UTF-8" standalone="no"?>
<svg
   width="103.99526"
   zoomAndPan="magnify"
   viewBox="0 0 77.996452 55.499999"
   height="74"
   preserveAspectRatio="xMidYMid"
   version="1.0"
   id="svg17"
   xmlns="http://www.w3.org/2000/svg"
   xmlns:svg="http://www.w3.org/2000/svg">
  <defs
     id="defs5">
    <clipPath
       id="1a4047951e">
      <path
         d="m 148.34766,86.84375 h 78 v 55.5 h -78 z m 0,0"
         clip-rule="nonzero"
         id="path2" />
    </clipPath>
  </defs>
  <rect
     x="0.01632903"
     width="78.031723"
     fill="#ffffff"
     y="-0.27659142"
     height="55.876873"
     fill-opacity="1"
     id="rect7"
     style="stroke-width:0.146736" />
  <rect
     style="opacity:1;fill:#000000;stroke-width:0.736582"
     id="rect351"
     width="79.43689"
     height="64.703186"
     x="-1.0424784"
     y="-1.0410738" />
  <g
     clip-path="url(#1a4047951e)"
     id="g15"
     transform="translate(-148.35121,-86.84375)">
    <path
       fill="#20ff30"
       d="m 186.96875,86.980469 -38.33594,28.675781 c -0.1875,0.14063 -0.28125,0.32813 -0.28125,0.5625 v 25.42187 c -0.008,0.29688 0.1211,0.50782 0.38281,0.64063 0.26563,0.13281 0.51172,0.10547 0.74219,-0.0781 l 37.50781,-28.05859 c 0.125,-0.0937 0.26172,-0.14062 0.41407,-0.14062 0.15234,0 0.29297,0.0469 0.41406,0.14062 l 37.44141,28.00391 c 0.23046,0.17187 0.46875,0.1914 0.72265,0.0625 0.25391,-0.125 0.38281,-0.33203 0.38281,-0.6211 V 116.168 c 0.004,-0.23438 -0.0898,-0.42188 -0.27734,-0.5625 L 187.79687,86.980469 c -0.12109,-0.08984 -0.25781,-0.136719 -0.41406,-0.136719 -0.15234,0 -0.28906,0.04687 -0.41406,0.136719 z m 0,0"
       fill-opacity="1"
       fill-rule="nonzero"
       id="path13" />
  </g>
</svg>
