<svg width="23" height="23" viewBox="0 0 23 23" fill="none" xmlns="http://www.w3.org/2000/svg">
<path d="M22.9255 8.66644C22.7539 8.15566 22.3118 7.78326 21.7795 7.70184L15.5843 6.75513L12.8015 0.826957C12.5642 0.321655 12.0571 0 11.5 0C10.9425 0 10.4358 0.321655 10.1984 0.826957L7.41535 6.75549L1.22012 7.7022C0.687818 7.78362 0.245693 8.15566 0.074465 8.66681C-0.0967627 9.17795 0.0324795 9.74094 0.408888 10.1272L4.9331 14.7666L3.86156 21.33C3.7732 21.8733 4.00358 22.4195 4.453 22.7371C4.90206 23.0548 5.49497 23.0869 5.97799 22.8204L11.5004 19.7663L17.0227 22.8204C17.2407 22.9409 17.4806 23 17.7193 23C18.0099 23 18.3005 22.9116 18.5477 22.7371C18.9971 22.4199 19.2271 21.8737 19.1388 21.33L18.0673 14.7666L22.5918 10.1272C22.9675 9.74094 23.0967 9.17795 22.9255 8.66644Z" fill="#D4D4D8"/>
</svg>
