<svg width="35" height="35" viewBox="0 0 35 35" fill="none" xmlns="http://www.w3.org/2000/svg">
<g clip-path="url(#clip0_1_1647)">
<path d="M14.5834 16.0417H8.75002C8.36325 16.0417 7.99231 15.888 7.71882 15.6145C7.44533 15.341 7.29169 14.9701 7.29169 14.5833V10.2083C7.29169 9.82156 7.44533 9.45063 7.71882 9.17714C7.99231 8.90365 8.36325 8.75 8.75002 8.75H13.125C13.5118 8.75 13.8827 8.90365 14.1562 9.17714C14.4297 9.45063 14.5834 9.82156 14.5834 10.2083V18.9583C14.5834 22.8477 12.6394 25.2773 8.75002 26.25" stroke="black" stroke-width="3" stroke-linecap="round" stroke-linejoin="round"/>
<path d="M27.7084 16.0417H21.875C21.4882 16.0417 21.1173 15.888 20.8438 15.6145C20.5703 15.341 20.4167 14.9701 20.4167 14.5833V10.2083C20.4167 9.82156 20.5703 9.45063 20.8438 9.17714C21.1173 8.90365 21.4882 8.75 21.875 8.75H26.25C26.6368 8.75 27.0077 8.90365 27.2812 9.17714C27.5547 9.45063 27.7084 9.82156 27.7084 10.2083V18.9583C27.7084 22.8477 25.7644 25.2773 21.875 26.25" stroke="#79F959" stroke-width="3" stroke-linecap="round" stroke-linejoin="round"/>
</g>
<defs>
<clipPath id="clip0_1_1647">
<rect width="35" height="35" fill="white"/>
</clipPath>
</defs>
</svg>
